<svg width="205" height="103" viewBox="0 0 205 103" fill="none" xmlns="http://www.w3.org/2000/svg">
<g clip-path="url(#clip0_422_1597)">
<g clip-path="url(#clip1_422_1597)">
<rect width="205" height="103" fill="white"/>
<path fill-rule="evenodd" clip-rule="evenodd" d="M0 51.5V103H102.5H205V51.5V0H102.5H0V51.5ZM92.9875 11.8244C93.171 14.256 93.0121 14.0926 95.2169 14.1133C97.9475 14.1392 97.9034 14.9456 95.1518 15.2949L93.2837 15.5319L93.3391 16.2325C93.3698 16.6179 93.5195 18.7198 93.6722 20.9034C94.0381 26.1453 94.7587 27.2097 96.9235 25.7089C98.5005 24.6157 98.5881 25.5182 97.0455 26.9646C95.7247 28.203 94.2354 28.5528 92.9455 27.9276C91.4566 27.2059 91.1958 26.3856 90.673 20.7867C90.5234 19.1811 90.3368 17.3575 90.2584 16.7342L90.1165 15.6011L88.7732 15.7582C87.0148 15.9643 86.9759 15.5314 88.6512 14.4026C89.914 13.552 91.1743 12.0426 91.8062 10.6245C92.4396 9.20349 92.8194 9.58937 92.9875 11.8244ZM111.525 14.5304C118.674 17.6789 116.183 27.6369 108.159 27.9858C98.9397 28.387 97.0475 16.1878 105.987 13.9826C107.268 13.6668 110.229 13.9595 111.525 14.5304ZM106.112 15.2094C100.897 17.1532 103.978 28.4428 109.288 26.8488C111.285 26.2491 112.05 24.9862 112.266 21.9299C112.602 17.1787 109.606 13.9071 106.112 15.2094ZM81.7981 15.7394C83.6559 16.467 84.3478 17.7914 84.9248 21.7209C85.75 27.3433 86.0339 28.0271 87.5432 28.0271C88.4549 28.0271 88.3253 28.45 87.3679 28.599C86.9226 28.6682 85.5496 28.883 84.3165 29.0762C81.4726 29.5211 80.9299 29.5255 81.1041 29.0992C81.1785 28.9181 81.5152 28.7052 81.8524 28.6259C82.9425 28.3693 82.9855 27.6826 82.1835 23.3485C81.776 21.1471 81.282 19.0543 81.0857 18.6977C80.1535 17.0081 77.5238 17.2767 75.3877 19.2797C74.2859 20.3128 74.2879 19.9092 75.358 24.4264C76.3061 28.4279 76.731 29.2684 77.8646 29.388C78.7164 29.4784 79.2074 29.8325 78.6913 29.9844C78.4971 30.0416 77.2737 30.3126 75.972 30.5865C74.6707 30.86 73.3454 31.1858 73.0277 31.3097C71.9724 31.7221 71.4707 31.1838 72.4352 30.6745C73.8036 29.9517 73.7944 29.7355 72.1354 23.7238C71.1099 20.0072 70.8254 19.5617 69.6769 19.8707C68.6827 20.1384 68.3188 19.6987 69.0809 19.1509C72.3763 16.7827 73.5519 16.4141 73.6847 17.7073C73.8046 18.8726 74.2331 18.8169 75.7516 17.4377C77.7509 15.6212 79.9331 15.0085 81.7981 15.7394ZM124.108 16.466C124.005 17.9697 124.143 18.0783 125.35 17.4497C128.609 15.7529 131.953 16.4012 133.141 18.9596C133.399 19.5151 133.627 19.9981 133.649 20.0327C133.67 20.0678 134.293 19.8323 135.032 19.5094C137.68 18.3536 140.905 18.8736 142.198 20.6641C143.26 22.1356 143.169 23.0246 141.496 27.5422C139.797 32.1276 139.702 32.7451 140.611 33.304C141.185 33.6568 141.48 34.3468 141.047 34.3228C140.403 34.2872 134.64 32.2521 134.562 32.033C134.5 31.86 134.824 31.7643 135.469 31.7643C136.804 31.7643 136.984 31.4909 138.496 27.1573C140.245 22.1466 140.129 21.1951 137.692 20.5103C134.935 19.7357 133.443 20.829 132.465 24.3418C132.062 25.7906 131.561 27.5836 131.352 28.3255C130.929 29.8282 131.208 30.6317 132.259 30.9445C132.817 31.1108 132.927 31.4409 132.471 31.5832C132.164 31.6793 126.112 30.2756 125.876 30.0541C125.579 29.7758 126.089 29.4611 126.805 29.4803C127.926 29.5101 128.148 29.1405 129.009 25.8084C129.441 24.1385 129.902 22.3922 130.034 21.9275C130.595 19.951 129.965 18.6819 128.207 18.2489C126.701 17.8779 123.557 18.8443 123.543 19.6828C123.541 19.8405 123.368 20.8626 123.159 21.9549C121.874 28.6672 121.868 28.4591 123.34 28.9402C123.931 29.1333 124.067 29.2693 123.859 29.4635C123.591 29.7148 117.682 28.9651 117.051 28.5994C116.632 28.3563 117.079 28.0271 117.828 28.0271C118.931 28.0271 119.233 27.3486 119.929 23.3028C120.844 17.9841 120.766 17.0499 119.403 17.0499C117.635 17.0499 118.785 16.3252 121.42 15.7779C123.861 15.2714 124.183 15.3536 124.108 16.466ZM64.4069 20.5281C65.5031 20.9947 66.8444 22.3542 67.2282 23.3874C67.4962 24.1077 67.5859 24.0607 63.5177 25.3183C57.2427 27.2577 56.7799 27.4932 57.4102 28.424C59.6683 31.76 63.6838 32.4732 66.4108 30.0228C67.0637 29.4361 67.5029 28.8316 67.5029 28.5192C67.5029 27.8906 67.9257 27.0929 68.2589 27.0929C68.6714 27.0929 68.5223 29.1333 68.0195 30.3741C65.373 36.9048 56.1915 35.3041 54.5259 28.0213C53.3871 23.0419 59.4725 18.4267 64.4069 20.5281ZM58.2841 22.2466C57.1678 22.9592 56.5595 23.7805 56.3796 24.8194C56.109 26.3827 56.4498 26.4475 59.472 25.4062C63.4859 24.0236 63.3066 24.1375 62.8038 23.2932C61.9208 21.8112 59.7529 21.3095 58.2841 22.2466ZM155.989 25.0669C160.226 27.0136 160.703 28.3448 158.554 32.2314C157.808 33.5799 156.784 35.4343 156.278 36.3517C155.179 38.3436 155.252 38.7708 156.69 38.7708C157.834 38.7708 157.929 39.1538 156.906 39.6434C154.883 40.6113 152.081 39.604 152.246 37.9682L152.318 37.2527L150.313 37.3344C146.199 37.5016 143.652 34.9975 145.075 32.1858C146.002 30.3549 147.727 30.0512 155.052 30.4284C156.152 30.4851 156.567 30.0089 156.852 28.3654C157.233 26.1587 152.577 24.3951 151.688 26.4091C150.865 28.2703 148.457 28.2635 148.457 26.4C148.457 24.1001 152.375 23.4066 155.989 25.0669ZM49.9421 25.9252C49.9421 26.1179 49.4101 26.5384 48.7598 26.8594C47.3693 27.5461 47.3617 27.572 48.2949 28.4673C51.1962 31.2502 49.2902 36.0201 44.6485 37.5925C43.5722 37.9572 43.1115 38.4315 43.1002 39.1869C43.0859 40.1562 43.8064 40.0087 47.5164 38.2835C52.2253 36.0941 53.6762 35.8918 55.2091 37.2099C58.6551 40.173 53.8192 46.7066 47.3063 47.8863C43.8218 48.5178 42.3381 46.5403 43.7352 43.1265C43.8572 42.8285 43.7434 42.7415 43.2324 42.7415C41.7416 42.7415 41.0922 41.4801 41.7293 39.8222C42.2607 38.4387 42.2054 38.0701 41.4653 38.0701C39.032 38.0701 36.6878 35.6703 36.9205 33.4165C37.2449 30.2631 41.1942 27.1102 44.8376 27.0953C45.181 27.0939 46.2459 26.7277 47.2038 26.2818C49.0073 25.4418 49.9421 25.3202 49.9421 25.9252ZM41.1748 29.2136C38.93 30.2554 38.6287 32.4064 40.4214 34.5919C43.5394 38.3926 49.0119 35.7798 46.7272 31.5813C45.3414 29.0343 43.3708 28.1943 41.1748 29.2136ZM166.971 31.2074C169.454 31.6346 169.673 31.8446 168.908 33.0599C168.22 34.1536 168.189 34.1133 169.692 34.0643C173.481 33.9403 176.139 35.4261 176.717 37.9923C177.026 39.3662 176.435 40.5118 173.616 44.004C170.564 47.784 170.313 48.3034 171.079 49.2737C171.818 50.2107 171.381 50.5644 170.434 49.7951C170.15 49.5639 169.22 48.907 168.368 48.3351C166.041 46.7748 165.547 46.3476 165.737 46.0583C165.864 45.8666 166.072 45.8642 166.506 46.0497C167.663 46.5437 168.179 46.1511 170.736 42.8348C174.709 37.6828 174.577 36.1066 170.1 35.2262C167.816 34.7769 167.714 34.849 165.044 38.8207C162.521 42.5753 162.235 43.3735 163.186 43.9977C164.587 44.918 163.423 45.1078 161.973 44.1957C161.184 43.6988 159.837 42.8982 158.981 42.4162C157.188 41.4071 156.98 40.9952 158.375 41.2163C159.724 41.4296 160.048 41.1053 162.781 36.7976C165.374 32.7139 165.535 32.1988 164.399 31.6476C162.66 30.8042 163.648 30.6355 166.971 31.2074ZM149.735 31.527C145.821 32.4112 148.21 36.7159 152.26 36.0744C153.294 35.9105 155.641 32.3103 155.049 31.7961C154.709 31.5005 150.741 31.2997 149.735 31.527ZM33.0214 34.405C34.4702 35.5732 33.4135 37.3695 31.2774 37.3695C28.3853 37.3695 28.617 39.7338 31.9185 43.9247C34.1468 46.7537 34.7393 47.1688 35.9575 46.7561C37.7928 46.1337 37.8353 46.5855 36.0554 47.7936C35.3364 48.2818 33.9859 49.2525 33.0547 49.9508C31.2973 51.2684 30.3492 51.3866 31.3778 50.1603C32.3152 49.043 32.1517 48.7287 28.2126 44.0881C25.3277 40.6891 24.8409 40.4171 23.8753 41.6661C23.7867 41.7814 23.5366 41.8117 23.3203 41.7338C22.8831 41.5767 25.2104 37.7193 26.0222 37.2551C26.4506 37.01 26.4168 36.9841 27.8354 38.6722L28.3961 39.3393L28.3976 38.4128C28.4022 35.1335 31.0642 32.8264 33.0214 34.405ZM190.058 37.3993C191.582 38.2028 192.093 40.0221 190.995 40.7429C188.927 42.101 185.749 38.8419 187.722 37.3868C188.546 36.7789 188.883 36.7803 190.058 37.3993ZM104.991 38.1835C108.485 38.3556 110.13 38.5886 114.27 39.4978C131.276 43.2346 146.842 56.5756 152.333 72.1228C152.716 73.2055 153.208 74.1565 153.448 74.2772C154.098 74.6034 154.241 75.2094 153.812 75.8231C153.009 76.973 151.347 76.0321 151.874 74.725C152.203 73.9066 150.812 70.1814 148.74 66.3313C130.338 32.144 79.3857 29.3256 56.7753 61.2446C55.8604 62.5359 55.3649 63.3346 53.689 66.2145C51.8609 69.3558 50.1758 73.9153 50.555 74.6952C51.105 75.8264 49.8135 76.7996 48.7592 76.0489C48.154 75.6184 48.215 74.9884 48.9289 74.2848C49.262 73.9566 49.8324 72.8475 50.1963 71.8196C54.3419 60.1053 64.8886 48.9397 77.0928 43.3437C80.2626 41.8905 82.8472 40.9404 86.3091 39.9563C90.3553 38.8063 98.8956 37.7073 101.628 37.9855C101.971 38.0201 103.484 38.1095 104.991 38.1835ZM52.8024 38.7563C52.0418 38.9731 45.5894 41.9789 45.1492 42.3215C44.7238 42.6526 44.752 44.6469 45.1902 45.2077C46.4381 46.8051 53.8043 43.7723 54.9564 41.1865C55.8825 39.1081 55.0128 38.1263 52.8024 38.7563ZM183.453 42.8497C185.662 43.6291 186.816 44.1577 186.816 44.3889C186.816 44.6128 185.577 45.9814 182.704 48.931C177.894 53.8677 177.566 54.354 178.472 55.2036C178.872 55.579 178.991 56.3786 178.627 56.2488C178.434 56.1806 176.633 54.7202 173.872 52.3944C172.916 51.589 172.985 51.1454 173.999 51.5789C175.255 52.1152 175.724 51.9277 177.258 50.2746C178.063 49.4082 179.017 48.3832 179.38 47.9973C182.66 44.5028 182.864 44.1318 181.943 43.3317C180.645 42.2038 181.16 42.0399 183.453 42.8497ZM98.8249 45.3692C98.9602 45.5297 99.4819 47.4476 99.9836 49.6317C100.485 51.8153 101.012 54.0748 101.155 54.6529C101.297 55.231 101.51 56.1244 101.628 56.6381C101.746 57.1523 101.959 58.0456 102.101 58.6237C102.243 59.2018 102.599 60.778 102.893 62.1269C103.708 65.8719 103.738 65.8791 104.507 62.5027C104.716 61.5897 104.994 60.3955 105.126 59.8496C105.257 59.3037 105.477 58.3844 105.613 57.8063C105.751 57.2282 105.972 56.3084 106.106 55.7625C106.24 55.2166 106.805 52.773 107.363 50.3323C107.92 47.8916 108.436 45.708 108.508 45.4802C108.628 45.1015 109.004 45.0717 112.918 45.1299L117.196 45.1938V60.6089V76.0239H114.581H111.965L111.901 65.1049C111.865 59.0995 111.743 54.1858 111.629 54.1858C111.516 54.1858 111.069 55.8413 110.636 57.8645C110.203 59.8876 109.637 62.4888 109.376 63.645C108.637 66.931 107.327 72.8672 107.059 74.1503C106.635 76.1782 106.7 76.1407 103.617 76.1407C100.995 76.1407 100.885 76.1205 100.755 75.615C100.469 74.5006 98.5025 65.6657 98.1427 63.8785C97.8701 62.5243 96.1122 54.6409 95.9297 53.9523C95.8442 53.6313 95.7186 58.4661 95.6499 64.6959L95.5254 76.0239L93.0551 76.0912C90.0309 76.1734 90.179 76.3536 90.1739 72.5789L90.1703 69.6009H85.8417C80.9729 69.6009 81.3886 69.4419 80.339 71.7029C79.0255 74.5309 78.3643 75.7894 78.1019 75.962C77.7222 76.2109 72.2358 76.1801 72.2358 75.9288C72.2358 75.812 72.7248 74.7346 73.3218 73.5347C73.9194 72.3343 74.6928 70.7744 75.0408 70.068C76.6772 66.7469 78.8015 62.5037 80.7121 58.7405C81.2343 57.7126 82.3854 55.4007 83.2715 53.602C85.9545 48.154 87.2239 45.6758 87.4884 45.3692C87.6759 45.1515 89.1243 45.077 93.1592 45.077C97.1966 45.077 98.6409 45.1515 98.8249 45.3692ZM8.84267 46.3447C13.1835 47.611 16.4707 48.722 21.3584 50.5735C26.751 52.6164 27.1984 52.7163 28.6052 52.1887C30.096 51.6293 30.1975 51.9575 28.885 53.094C28.2659 53.6303 26.7064 54.9917 25.4195 56.1196C23.2198 58.0471 21.9499 58.6117 23.0118 57.1898C24.0475 55.8039 23.4571 55.1316 20.1033 53.8783C17.9626 53.0782 17.6838 53.268 11.9085 59.4556C11.4723 59.9231 11.4836 59.9943 12.2979 61.8867C13.733 65.2226 14.7087 65.7863 16.1771 64.1275C16.3554 63.9266 16.5994 63.7618 16.7193 63.7618C17.3046 63.7618 16.7623 64.6671 14.9455 66.7243C13.8493 67.9651 12.9524 69.0675 12.9524 69.1737C12.9524 69.2804 12.7284 69.3674 12.4543 69.3674C11.8792 69.3674 11.8541 69.2818 12.2344 68.6163C12.7464 67.7191 12.4917 66.4677 11.2058 63.5609C8.50545 57.455 5.01071 47.5595 4.98765 45.9531C4.97894 45.3567 5.71027 45.4312 8.84267 46.3447ZM8.21999 50.6173C8.21999 51.205 10.5949 57.9077 10.907 58.2004C11.0726 58.3556 11.5184 58.0596 12.2411 57.3133C12.8381 56.6972 14.0235 55.505 14.8763 54.664C16.912 52.6553 16.976 52.7562 12.8904 51.5361C7.92684 50.0536 8.21999 50.1113 8.21999 50.6173ZM193.753 51.4818C196.263 52.6745 199.022 56.172 199.022 58.1619C199.022 59.5243 198.573 60.0178 194.739 62.8718C190.39 66.1088 190.169 66.4461 191.94 67.14C192.854 67.498 193.076 67.9493 192.359 67.992C189.284 68.1742 186.89 66.0357 188.202 64.2793C188.511 63.8651 188.524 63.7363 188.264 63.6512C183.655 62.1423 182.315 61.0087 182.295 58.6011C182.262 54.6318 186.365 54.3449 192.415 57.8938C193.24 58.3777 194.042 58.8438 194.198 58.9293C194.603 59.1523 195.653 58.3032 196.125 57.3704C197.369 54.911 193.687 51.7475 191.723 53.589C191.008 54.2598 190.13 54.2776 189.445 53.6351C187.378 51.6976 190.706 50.0344 193.753 51.4818ZM89.4307 52.7303C89.4241 52.9869 88.5913 54.7495 84.9018 62.3172C84.5061 63.1289 84.2473 63.8905 84.3267 64.0107C84.4841 64.25 89.1422 64.3154 89.7762 64.0871C90.344 63.8829 90.3701 53.589 89.8043 52.8874C89.5922 52.6245 89.4353 52.5587 89.4307 52.7303ZM186.318 57.6021C184.296 58.9356 185.404 61.5214 188.407 62.4787L189.771 62.9131L191.469 61.5392C192.404 60.7833 193.224 60.124 193.293 60.074C194.368 59.2893 187.468 56.8438 186.318 57.6021Z" fill="#0C0A09"/>
<path d="M65.2614 93.0909C64.8977 93.0909 64.5767 92.9991 64.2983 92.8153C64.0199 92.6297 63.8021 92.3684 63.6449 92.0312C63.4877 91.6922 63.4091 91.2917 63.4091 90.8295C63.4091 90.3712 63.4877 89.9735 63.6449 89.6364C63.8021 89.2992 64.0208 89.0388 64.3011 88.8551C64.5814 88.6714 64.9053 88.5795 65.2727 88.5795C65.5568 88.5795 65.7813 88.6269 65.946 88.7216C66.1127 88.8144 66.2396 88.9205 66.3267 89.0398C66.4157 89.1572 66.4848 89.2538 66.5341 89.3295H66.5909V87.1818H67.2614V93H66.6136V92.3295H66.5341C66.4848 92.4091 66.4148 92.5095 66.3239 92.6307C66.233 92.75 66.1032 92.857 65.9347 92.9517C65.7661 93.0445 65.5417 93.0909 65.2614 93.0909ZM65.3523 92.4886C65.6212 92.4886 65.8485 92.4186 66.0341 92.2784C66.2197 92.1364 66.3608 91.9403 66.4574 91.6903C66.554 91.4384 66.6023 91.1477 66.6023 90.8182C66.6023 90.4924 66.5549 90.2074 66.4602 89.9631C66.3655 89.7169 66.2254 89.5256 66.0398 89.3892C65.8542 89.2509 65.625 89.1818 65.3523 89.1818C65.0682 89.1818 64.8314 89.2547 64.642 89.4006C64.4545 89.5445 64.3134 89.7405 64.2188 89.9886C64.1259 90.2348 64.0795 90.5114 64.0795 90.8182C64.0795 91.1288 64.1269 91.411 64.2216 91.6648C64.3182 91.9167 64.4602 92.1174 64.6477 92.267C64.8371 92.4148 65.072 92.4886 65.3523 92.4886ZM68.5824 93V88.6364H69.2528V93H68.5824ZM68.9233 87.9091C68.7926 87.9091 68.6799 87.8646 68.5852 87.7756C68.4924 87.6866 68.446 87.5795 68.446 87.4545C68.446 87.3295 68.4924 87.2225 68.5852 87.1335C68.6799 87.0445 68.7926 87 68.9233 87C69.054 87 69.1657 87.0445 69.2585 87.1335C69.3532 87.2225 69.4006 87.3295 69.4006 87.4545C69.4006 87.5795 69.3532 87.6866 69.2585 87.7756C69.1657 87.8646 69.054 87.9091 68.9233 87.9091ZM77.7308 90.0909C77.7308 90.7045 77.62 91.2348 77.3984 91.6818C77.1768 92.1288 76.8729 92.4735 76.4865 92.7159C76.1001 92.9583 75.6589 93.0795 75.1626 93.0795C74.6664 93.0795 74.2251 92.9583 73.8388 92.7159C73.4524 92.4735 73.1484 92.1288 72.9268 91.6818C72.7053 91.2348 72.5945 90.7045 72.5945 90.0909C72.5945 89.4773 72.7053 88.947 72.9268 88.5C73.1484 88.053 73.4524 87.7083 73.8388 87.4659C74.2251 87.2235 74.6664 87.1023 75.1626 87.1023C75.6589 87.1023 76.1001 87.2235 76.4865 87.4659C76.8729 87.7083 77.1768 88.053 77.3984 88.5C77.62 88.947 77.7308 89.4773 77.7308 90.0909ZM77.049 90.0909C77.049 89.5871 76.9647 89.1619 76.7962 88.8153C76.6295 88.4688 76.4032 88.2064 76.1172 88.0284C75.8331 87.8504 75.5149 87.7614 75.1626 87.7614C74.8104 87.7614 74.4912 87.8504 74.2053 88.0284C73.9212 88.2064 73.6948 88.4688 73.5263 88.8153C73.3596 89.1619 73.2763 89.5871 73.2763 90.0909C73.2763 90.5947 73.3596 91.0199 73.5263 91.3665C73.6948 91.7131 73.9212 91.9754 74.2053 92.1534C74.4912 92.3314 74.8104 92.4205 75.1626 92.4205C75.5149 92.4205 75.8331 92.3314 76.1172 92.1534C76.4032 91.9754 76.6295 91.7131 76.7962 91.3665C76.9647 91.0199 77.049 90.5947 77.049 90.0909ZM78.8246 93V88.6364H79.4723V89.2955H79.5178C79.5973 89.0795 79.7412 88.9044 79.9496 88.7699C80.1579 88.6354 80.3928 88.5682 80.6541 88.5682C80.7034 88.5682 80.7649 88.5691 80.8388 88.571C80.9126 88.5729 80.9685 88.5758 81.0064 88.5795V89.2614C80.9837 89.2557 80.9316 89.2472 80.8501 89.2358C80.7706 89.2225 80.6863 89.2159 80.5973 89.2159C80.3852 89.2159 80.1958 89.2604 80.0291 89.3494C79.8643 89.4366 79.7337 89.5578 79.6371 89.7131C79.5424 89.8665 79.495 90.0417 79.495 90.2386V93H78.8246ZM82.4716 90.375V93H81.8011V88.6364H82.4489V89.3182H82.5057C82.608 89.0966 82.7633 88.9186 82.9716 88.7841C83.1799 88.6477 83.4489 88.5795 83.7784 88.5795C84.0739 88.5795 84.3324 88.6402 84.554 88.7614C84.7756 88.8807 84.9479 89.0625 85.071 89.3068C85.1941 89.5492 85.2557 89.8561 85.2557 90.2273V93H84.5852V90.2727C84.5852 89.9299 84.4962 89.6629 84.3182 89.4716C84.1402 89.2784 83.8958 89.1818 83.5852 89.1818C83.3712 89.1818 83.1799 89.2282 83.0114 89.321C82.8447 89.4138 82.7131 89.5492 82.6165 89.7273C82.5199 89.9053 82.4716 90.1212 82.4716 90.375ZM88.3104 93.0909C87.8899 93.0909 87.5272 92.9981 87.2223 92.8125C86.9193 92.625 86.6854 92.3636 86.5206 92.0284C86.3577 91.6913 86.2763 91.2992 86.2763 90.8523C86.2763 90.4053 86.3577 90.0114 86.5206 89.6705C86.6854 89.3277 86.9145 89.0606 87.2081 88.8693C87.5036 88.6761 87.8482 88.5795 88.2422 88.5795C88.4695 88.5795 88.6939 88.6174 88.9155 88.6932C89.1371 88.7689 89.3388 88.892 89.5206 89.0625C89.7024 89.2311 89.8473 89.4545 89.9553 89.733C90.0632 90.0114 90.1172 90.3542 90.1172 90.7614V91.0455H86.7536V90.4659H89.4354C89.4354 90.2197 89.3861 90 89.2876 89.8068C89.1911 89.6136 89.0528 89.4612 88.8729 89.3494C88.6948 89.2377 88.4846 89.1818 88.2422 89.1818C87.9751 89.1818 87.7441 89.2481 87.549 89.3807C87.3558 89.5114 87.2071 89.6818 87.103 89.892C86.9988 90.1023 86.9467 90.3277 86.9467 90.5682V90.9545C86.9467 91.2841 87.0036 91.5634 87.1172 91.7926C87.2327 92.0199 87.3928 92.1932 87.5973 92.3125C87.8018 92.4299 88.0395 92.4886 88.3104 92.4886C88.4865 92.4886 88.6456 92.464 88.7876 92.4148C88.9316 92.3636 89.0556 92.2879 89.1598 92.1875C89.264 92.0852 89.3445 91.9583 89.4013 91.8068L90.049 91.9886C89.9808 92.2083 89.8662 92.4015 89.7053 92.5682C89.5443 92.733 89.3454 92.8617 89.1087 92.9545C88.8719 93.0455 88.6058 93.0909 88.3104 93.0909ZM91.8075 87.1818V93H91.1371V87.1818H91.8075ZM93.706 87.1818V93H93.0355V87.1818H93.706ZM96.218 93.1023C95.9415 93.1023 95.6906 93.0502 95.4652 92.946C95.2398 92.84 95.0608 92.6875 94.9283 92.4886C94.7957 92.2879 94.7294 92.0455 94.7294 91.7614C94.7294 91.5114 94.7786 91.3087 94.8771 91.1534C94.9756 90.9962 95.1072 90.8731 95.272 90.7841C95.4368 90.6951 95.6186 90.6288 95.8175 90.5852C96.0182 90.5398 96.2199 90.5038 96.4226 90.4773C96.6877 90.4432 96.9027 90.4176 97.0675 90.4006C97.2341 90.3816 97.3554 90.3504 97.4311 90.3068C97.5088 90.2633 97.5476 90.1875 97.5476 90.0795V90.0568C97.5476 89.7765 97.4709 89.5587 97.3175 89.4034C97.166 89.2481 96.9358 89.1705 96.6271 89.1705C96.3071 89.1705 96.0561 89.2405 95.8743 89.3807C95.6925 89.5208 95.5646 89.6705 95.4908 89.8295L94.8544 89.6023C94.968 89.3371 95.1196 89.1307 95.3089 88.983C95.5002 88.8333 95.7086 88.7292 95.9339 88.6705C96.1612 88.6098 96.3847 88.5795 96.6044 88.5795C96.7446 88.5795 96.9055 88.5966 97.0874 88.6307C97.2711 88.6629 97.4482 88.7301 97.6186 88.8324C97.791 88.9347 97.9339 89.089 98.0476 89.2955C98.1612 89.5019 98.218 89.7784 98.218 90.125V93H97.5476V92.4091H97.5135C97.468 92.5038 97.3923 92.6051 97.2862 92.7131C97.1802 92.821 97.0391 92.9129 96.8629 92.9886C96.6868 93.0644 96.4718 93.1023 96.218 93.1023ZM96.3203 92.5C96.5855 92.5 96.8089 92.4479 96.9908 92.3438C97.1745 92.2396 97.3127 92.1051 97.4055 91.9403C97.5002 91.7756 97.5476 91.6023 97.5476 91.4205V90.8068C97.5192 90.8409 97.4567 90.8722 97.3601 90.9006C97.2654 90.9271 97.1555 90.9508 97.0305 90.9716C96.9074 90.9905 96.7872 91.0076 96.6697 91.0227C96.5542 91.036 96.4605 91.0473 96.3885 91.0568C96.2143 91.0795 96.0514 91.1165 95.8999 91.1676C95.7502 91.2169 95.629 91.2917 95.5362 91.392C95.4453 91.4905 95.3999 91.625 95.3999 91.7955C95.3999 92.0284 95.486 92.2045 95.6584 92.3239C95.8326 92.4413 96.0533 92.5 96.3203 92.5ZM105.76 89C105.697 88.8087 105.615 88.6373 105.513 88.4858C105.412 88.3324 105.292 88.2017 105.152 88.0938C105.014 87.9858 104.857 87.9034 104.68 87.8466C104.504 87.7898 104.311 87.7614 104.101 87.7614C103.756 87.7614 103.443 87.8504 103.161 88.0284C102.878 88.2064 102.654 88.4688 102.487 88.8153C102.321 89.1619 102.237 89.5871 102.237 90.0909C102.237 90.5947 102.321 91.0199 102.49 91.3665C102.659 91.7131 102.887 91.9754 103.175 92.1534C103.463 92.3314 103.786 92.4205 104.146 92.4205C104.48 92.4205 104.773 92.3494 105.027 92.2074C105.283 92.0634 105.482 91.8608 105.624 91.5994C105.768 91.3362 105.839 91.0265 105.839 90.6705L106.055 90.7159H104.305V90.0909H106.521V90.7159C106.521 91.1951 106.419 91.6117 106.214 91.9659C106.012 92.3201 105.732 92.5947 105.374 92.7898C105.018 92.983 104.608 93.0795 104.146 93.0795C103.631 93.0795 103.179 92.9583 102.788 92.7159C102.4 92.4735 102.097 92.1288 101.879 91.6818C101.663 91.2348 101.555 90.7045 101.555 90.0909C101.555 89.6307 101.617 89.2169 101.74 88.8494C101.865 88.4801 102.041 88.1657 102.268 87.9062C102.496 87.6468 102.765 87.4479 103.075 87.3097C103.386 87.1714 103.728 87.1023 104.101 87.1023C104.408 87.1023 104.694 87.1487 104.959 87.2415C105.226 87.3324 105.464 87.4621 105.672 87.6307C105.882 87.7973 106.057 87.9972 106.197 88.2301C106.338 88.4612 106.434 88.7178 106.487 89H105.76ZM107.637 93V88.6364H108.285V89.2955H108.33C108.41 89.0795 108.554 88.9044 108.762 88.7699C108.97 88.6354 109.205 88.5682 109.467 88.5682C109.516 88.5682 109.577 88.5691 109.651 88.571C109.725 88.5729 109.781 88.5758 109.819 88.5795V89.2614C109.796 89.2557 109.744 89.2472 109.663 89.2358C109.583 89.2225 109.499 89.2159 109.41 89.2159C109.198 89.2159 109.008 89.2604 108.842 89.3494C108.677 89.4366 108.546 89.5578 108.45 89.7131C108.355 89.8665 108.308 90.0417 108.308 90.2386V93H107.637ZM111.898 93.1023C111.621 93.1023 111.37 93.0502 111.145 92.946C110.92 92.84 110.741 92.6875 110.608 92.4886C110.475 92.2879 110.409 92.0455 110.409 91.7614C110.409 91.5114 110.458 91.3087 110.557 91.1534C110.655 90.9962 110.787 90.8731 110.952 90.7841C111.116 90.6951 111.298 90.6288 111.497 90.5852C111.698 90.5398 111.9 90.5038 112.102 90.4773C112.367 90.4432 112.582 90.4176 112.747 90.4006C112.914 90.3816 113.035 90.3504 113.111 90.3068C113.188 90.2633 113.227 90.1875 113.227 90.0795V90.0568C113.227 89.7765 113.151 89.5587 112.997 89.4034C112.846 89.2481 112.616 89.1705 112.307 89.1705C111.987 89.1705 111.736 89.2405 111.554 89.3807C111.372 89.5208 111.244 89.6705 111.17 89.8295L110.534 89.6023C110.648 89.3371 110.799 89.1307 110.989 88.983C111.18 88.8333 111.388 88.7292 111.614 88.6705C111.841 88.6098 112.064 88.5795 112.284 88.5795C112.424 88.5795 112.585 88.5966 112.767 88.6307C112.951 88.6629 113.128 88.7301 113.298 88.8324C113.471 88.9347 113.614 89.089 113.727 89.2955C113.841 89.5019 113.898 89.7784 113.898 90.125V93H113.227V92.4091H113.193C113.148 92.5038 113.072 92.6051 112.966 92.7131C112.86 92.821 112.719 92.9129 112.543 92.9886C112.366 93.0644 112.152 93.1023 111.898 93.1023ZM112 92.5C112.265 92.5 112.489 92.4479 112.67 92.3438C112.854 92.2396 112.992 92.1051 113.085 91.9403C113.18 91.7756 113.227 91.6023 113.227 91.4205V90.8068C113.199 90.8409 113.136 90.8722 113.04 90.9006C112.945 90.9271 112.835 90.9508 112.71 90.9716C112.587 90.9905 112.467 91.0076 112.349 91.0227C112.234 91.036 112.14 91.0473 112.068 91.0568C111.894 91.0795 111.731 91.1165 111.58 91.1676C111.43 91.2169 111.309 91.2917 111.216 91.392C111.125 91.4905 111.08 91.625 111.08 91.7955C111.08 92.0284 111.166 92.2045 111.338 92.3239C111.512 92.4413 111.733 92.5 112 92.5ZM115.121 93V88.6364H115.769V89.3182H115.826C115.917 89.0852 116.064 88.9044 116.266 88.7756C116.469 88.6449 116.712 88.5795 116.996 88.5795C117.284 88.5795 117.524 88.6449 117.715 88.7756C117.908 88.9044 118.059 89.0852 118.167 89.3182H118.212C118.324 89.0928 118.492 88.9138 118.715 88.7812C118.939 88.6468 119.207 88.5795 119.519 88.5795C119.909 88.5795 120.228 88.7017 120.477 88.946C120.725 89.1884 120.849 89.5663 120.849 90.0795V93H120.178V90.0795C120.178 89.7576 120.09 89.5275 119.914 89.3892C119.738 89.2509 119.531 89.1818 119.292 89.1818C118.985 89.1818 118.747 89.2746 118.579 89.4602C118.41 89.6439 118.326 89.8769 118.326 90.1591V93H117.644V90.0114C117.644 89.7633 117.564 89.5634 117.403 89.4119C117.242 89.2585 117.034 89.1818 116.781 89.1818C116.606 89.1818 116.443 89.2282 116.292 89.321C116.142 89.4138 116.021 89.5426 115.928 89.7074C115.837 89.8703 115.792 90.0587 115.792 90.2727V93H115.121ZM123.359 93.1023C123.082 93.1023 122.831 93.0502 122.606 92.946C122.38 92.84 122.201 92.6875 122.069 92.4886C121.936 92.2879 121.87 92.0455 121.87 91.7614C121.87 91.5114 121.919 91.3087 122.018 91.1534C122.116 90.9962 122.248 90.8731 122.413 90.7841C122.577 90.6951 122.759 90.6288 122.958 90.5852C123.159 90.5398 123.361 90.5038 123.563 90.4773C123.828 90.4432 124.043 90.4176 124.208 90.4006C124.375 90.3816 124.496 90.3504 124.572 90.3068C124.649 90.2633 124.688 90.1875 124.688 90.0795V90.0568C124.688 89.7765 124.612 89.5587 124.458 89.4034C124.307 89.2481 124.076 89.1705 123.768 89.1705C123.448 89.1705 123.197 89.2405 123.015 89.3807C122.833 89.5208 122.705 89.6705 122.631 89.8295L121.995 89.6023C122.109 89.3371 122.26 89.1307 122.45 88.983C122.641 88.8333 122.849 88.7292 123.075 88.6705C123.302 88.6098 123.525 88.5795 123.745 88.5795C123.885 88.5795 124.046 88.5966 124.228 88.6307C124.412 88.6629 124.589 88.7301 124.759 88.8324C124.932 88.9347 125.075 89.089 125.188 89.2955C125.302 89.5019 125.359 89.7784 125.359 90.125V93H124.688V92.4091H124.654C124.609 92.5038 124.533 92.6051 124.427 92.7131C124.321 92.821 124.18 92.9129 124.004 92.9886C123.827 93.0644 123.612 93.1023 123.359 93.1023ZM123.461 92.5C123.726 92.5 123.95 92.4479 124.131 92.3438C124.315 92.2396 124.453 92.1051 124.546 91.9403C124.641 91.7756 124.688 91.6023 124.688 91.4205V90.8068C124.66 90.8409 124.597 90.8722 124.501 90.9006C124.406 90.9271 124.296 90.9508 124.171 90.9716C124.048 90.9905 123.928 91.0076 123.81 91.0227C123.695 91.036 123.601 91.0473 123.529 91.0568C123.355 91.0795 123.192 91.1165 123.04 91.1676C122.891 91.2169 122.77 91.2917 122.677 91.392C122.586 91.4905 122.54 91.625 122.54 91.7955C122.54 92.0284 122.627 92.2045 122.799 92.3239C122.973 92.4413 123.194 92.5 123.461 92.5ZM128.344 94.7273C128.02 94.7273 127.741 94.6856 127.509 94.6023C127.276 94.5208 127.081 94.4129 126.926 94.2784C126.773 94.1458 126.651 94.0038 126.56 93.8523L127.094 93.4773C127.154 93.5568 127.231 93.6477 127.324 93.75C127.417 93.8542 127.544 93.9441 127.705 94.0199C127.867 94.0975 128.08 94.1364 128.344 94.1364C128.696 94.1364 128.987 94.0511 129.216 93.8807C129.445 93.7102 129.56 93.4432 129.56 93.0795V92.1932H129.503C129.454 92.2727 129.384 92.3712 129.293 92.4886C129.204 92.6042 129.075 92.7074 128.906 92.7983C128.74 92.8873 128.514 92.9318 128.23 92.9318C127.878 92.9318 127.562 92.8485 127.281 92.6818C127.003 92.5152 126.782 92.2727 126.619 91.9545C126.458 91.6364 126.378 91.25 126.378 90.7955C126.378 90.3485 126.456 89.9593 126.614 89.6278C126.771 89.2945 126.99 89.0369 127.27 88.8551C127.55 88.6714 127.874 88.5795 128.241 88.5795C128.526 88.5795 128.751 88.6269 128.918 88.7216C129.086 88.8144 129.215 88.9205 129.304 89.0398C129.395 89.1572 129.465 89.2538 129.514 89.3295H129.582V88.6364H130.23V93.125C130.23 93.5 130.145 93.8049 129.974 94.0398C129.806 94.2765 129.579 94.4498 129.293 94.5597C129.009 94.6714 128.692 94.7273 128.344 94.7273ZM128.321 92.3295C128.59 92.3295 128.817 92.268 129.003 92.1449C129.188 92.0218 129.33 91.8447 129.426 91.6136C129.523 91.3826 129.571 91.1061 129.571 90.7841C129.571 90.4697 129.524 90.1922 129.429 89.9517C129.334 89.7112 129.194 89.5227 129.009 89.3864C128.823 89.25 128.594 89.1818 128.321 89.1818C128.037 89.1818 127.8 89.2538 127.611 89.3977C127.423 89.5417 127.282 89.7348 127.188 89.9773C127.095 90.2197 127.048 90.4886 127.048 90.7841C127.048 91.0871 127.096 91.3551 127.19 91.5881C127.287 91.8191 127.429 92.0009 127.616 92.1335C127.806 92.2642 128.041 92.3295 128.321 92.3295ZM132.128 87.1818V93H131.457V87.1818H132.128ZM133.356 93V88.6364H134.026V93H133.356ZM133.697 87.9091C133.566 87.9091 133.453 87.8646 133.359 87.7756C133.266 87.6866 133.219 87.5795 133.219 87.4545C133.219 87.3295 133.266 87.2225 133.359 87.1335C133.453 87.0445 133.566 87 133.697 87C133.827 87 133.939 87.0445 134.032 87.1335C134.127 87.2225 134.174 87.3295 134.174 87.4545C134.174 87.5795 134.127 87.6866 134.032 87.7756C133.939 87.8646 133.827 87.9091 133.697 87.9091ZM136.538 93.1023C136.262 93.1023 136.011 93.0502 135.786 92.946C135.56 92.84 135.381 92.6875 135.249 92.4886C135.116 92.2879 135.05 92.0455 135.05 91.7614C135.05 91.5114 135.099 91.3087 135.197 91.1534C135.296 90.9962 135.428 90.8731 135.592 90.7841C135.757 90.6951 135.939 90.6288 136.138 90.5852C136.339 90.5398 136.54 90.5038 136.743 90.4773C137.008 90.4432 137.223 90.4176 137.388 90.4006C137.554 90.3816 137.676 90.3504 137.751 90.3068C137.829 90.2633 137.868 90.1875 137.868 90.0795V90.0568C137.868 89.7765 137.791 89.5587 137.638 89.4034C137.486 89.2481 137.256 89.1705 136.947 89.1705C136.627 89.1705 136.376 89.2405 136.195 89.3807C136.013 89.5208 135.885 89.6705 135.811 89.8295L135.175 89.6023C135.288 89.3371 135.44 89.1307 135.629 88.983C135.821 88.8333 136.029 88.7292 136.254 88.6705C136.482 88.6098 136.705 88.5795 136.925 88.5795C137.065 88.5795 137.226 88.5966 137.408 88.6307C137.591 88.6629 137.768 88.7301 137.939 88.8324C138.111 88.9347 138.254 89.089 138.368 89.2955C138.482 89.5019 138.538 89.7784 138.538 90.125V93H137.868V92.4091H137.834C137.788 92.5038 137.713 92.6051 137.607 92.7131C137.5 92.821 137.359 92.9129 137.183 92.9886C137.007 93.0644 136.792 93.1023 136.538 93.1023ZM136.641 92.5C136.906 92.5 137.129 92.4479 137.311 92.3438C137.495 92.2396 137.633 92.1051 137.726 91.9403C137.821 91.7756 137.868 91.6023 137.868 91.4205V90.8068C137.839 90.8409 137.777 90.8722 137.68 90.9006C137.586 90.9271 137.476 90.9508 137.351 90.9716C137.228 90.9905 137.107 91.0076 136.99 91.0227C136.875 91.036 136.781 91.0473 136.709 91.0568C136.535 91.0795 136.372 91.1165 136.22 91.1676C136.071 91.2169 135.949 91.2917 135.857 91.392C135.766 91.4905 135.72 91.625 135.72 91.7955C135.72 92.0284 135.806 92.2045 135.979 92.3239C136.153 92.4413 136.374 92.5 136.641 92.5Z" fill="white"/>
</g>
</g>
<defs>
<clipPath id="clip0_422_1597">
<rect width="205" height="103" fill="white"/>
</clipPath>
<clipPath id="clip1_422_1597">
<rect width="205" height="103" fill="white"/>
</clipPath>
</defs>
</svg>
